<svg id="visual" viewBox="0 0 560 1460" width="560" height="1460" xmlns="http://www.w3.org/2000/svg" xmlns:xlink="http://www.w3.org/1999/xlink" version="1.1"><rect x="0" y="0" width="560" height="1460" fill="#12232e"></rect><path d="M350 1460L359.8 1411.3C369.7 1362.7 389.3 1265.3 402.8 1168C416.3 1070.7 423.7 973.3 405.5 876C387.3 778.7 343.7 681.3 320.2 584C296.7 486.7 293.3 389.3 306 292C318.7 194.7 347.3 97.3 361.7 48.7L376 0L560 0L560 48.7C560 97.3 560 194.7 560 292C560 389.3 560 486.7 560 584C560 681.3 560 778.7 560 876C560 973.3 560 1070.7 560 1168C560 1265.3 560 1362.7 560 1411.3L560 1460Z" fill="#007cc7" stroke-linecap="round" stroke-linejoin="miter"></path></svg>